# xmcd CD database file
#
# Track frame offsets:
#	150
#	70032
#	129617
#	193345
#	269209
#
# Disc length: 4432 seconds
#
# Revision: 1
# Processed by: cddbd v1.5.1PL0 Copyright (c) Steve Scherf et al.
# Submitted via: CDex 1.51
#
DISCID=51114e05
DTITLE=Hennie Bekker - natural stress relief II
DYEAR=1900
DGENRE=New Age
TTITLE0=Solitudes - Fade to Blue 
TTITLE1=Solitudes - Lakeside Calm
TTITLE2=Solitudes - Forest Sanctuary 
TTITLE3=Solitudes -  Waves of Peace 
TTITLE4=DATA
EXTD=From the Solitudes Group of Dan and Gordon Gibson
EXTT0=
EXTT1=
EXTT2=
EXTT3=
EXTT4=
PLAYORDER=
